<svg id="Layer_1" data-name="Layer 1" xmlns="http://www.w3.org/2000/svg" viewBox="0 0 538 45.33"><defs><style>.cls-1{fill:#565656;}</style></defs><title>laurensiminski</title><path class="cls-1" d="M0,1.83A1.2,1.2,0,0,1,1.2.63H8.69a1.24,1.24,0,0,1,1.2,1.2V35.45h15a1.19,1.19,0,0,1,1.2,1.2v6.86a1.2,1.2,0,0,1-1.2,1.2H1.2A1.2,1.2,0,0,1,0,43.51V1.83Z"/><path class="cls-1" d="M29.69,43.07L49.4,0.69A1.28,1.28,0,0,1,50.47,0H51.1a1.28,1.28,0,0,1,1.07.69L71.87,43.07A1.11,1.11,0,0,1,70.8,44.7h-7c-1.13,0-1.64-.38-2.2-1.57l-2.27-5H42.22l-2.27,5a2.34,2.34,0,0,1-2.27,1.51H30.76A1.11,1.11,0,0,1,29.69,43.07ZM55.57,29.59L50.78,19.2H50.72L46,29.59h9.57Z"/><path class="cls-1" d="M74.91,1.83a1.24,1.24,0,0,1,1.2-1.2h7.74A1.2,1.2,0,0,1,85,1.83v25.5a7.81,7.81,0,1,0,15.61,0V1.83a1.2,1.2,0,0,1,1.2-1.2h7.74a1.24,1.24,0,0,1,1.2,1.2v26c0,9.57-8.06,17.5-18,17.5a17.75,17.75,0,0,1-17.88-17.5v-26Z"/><path class="cls-1" d="M121.5,1.83a1.2,1.2,0,0,1,1.2-1.2h18.83a13.69,13.69,0,0,1,13.73,13.6c0,5.79-3.84,10.45-9.32,12.66l8.63,16a1.19,1.19,0,0,1-1.07,1.83h-8.37a1.16,1.16,0,0,1-1-.57l-8.37-16.68h-4.34V43.51a1.24,1.24,0,0,1-1.2,1.2H122.7a1.2,1.2,0,0,1-1.2-1.2V1.83Zm19.2,17.63a5,5,0,0,0,4.78-5,4.82,4.82,0,0,0-4.78-4.79h-9.32v9.82h9.32Z"/><path class="cls-1" d="M164.1,1.83a1.2,1.2,0,0,1,1.2-1.2h26.07a1.2,1.2,0,0,1,1.2,1.2V8.69a1.2,1.2,0,0,1-1.2,1.2H173.92v7.81h14.36a1.24,1.24,0,0,1,1.2,1.2v6.86a1.2,1.2,0,0,1-1.2,1.2H173.92v8.5h17.44a1.2,1.2,0,0,1,1.2,1.2v6.86a1.2,1.2,0,0,1-1.2,1.2H165.29a1.2,1.2,0,0,1-1.2-1.2V1.83Z"/><path class="cls-1" d="M201.91,1.13A1.18,1.18,0,0,1,203.1,0h1.57L229.8,24.18h0.06V1.83a1.2,1.2,0,0,1,1.2-1.2h7.56a1.24,1.24,0,0,1,1.2,1.2V44.2a1.18,1.18,0,0,1-1.2,1.13h-1a1.87,1.87,0,0,1-.82-0.31L211.92,20h-0.06V43.51a1.2,1.2,0,0,1-1.2,1.2h-7.49a1.24,1.24,0,0,1-1.2-1.2Z"/><path class="cls-1" d="M265.81,38.72l3-5.23a1.62,1.62,0,0,1,2.14-.38c0.25,0.13,4.79,3.46,8.94,3.46,2.52,0,4.34-1.57,4.34-3.78,0-2.65-2.2-4.66-6.48-6.36-5.41-2.14-12.21-6.36-12.21-13.91C265.49,6.3,270.34,0,280,0a23.41,23.41,0,0,1,13.47,4.72,1.6,1.6,0,0,1,.38,2l-3.21,4.85c-0.44.69-1.57,1.26-2.14,0.82s-5.16-3.78-9-3.78c-2.27,0-4,1.51-4,3.21,0,2.33,1.89,4.09,6.86,6.11s12.72,5.79,12.72,14.36c0,6.49-5.6,13-14.86,13-8.18,0-12.72-3.4-14.17-4.85C265.49,39.85,265.3,39.6,265.81,38.72Z"/><path class="cls-1" d="M303.49,1.83a1.24,1.24,0,0,1,1.2-1.2h7.56a1.24,1.24,0,0,1,1.2,1.2V43.51a1.24,1.24,0,0,1-1.2,1.2h-7.56a1.24,1.24,0,0,1-1.2-1.2V1.83Z"/><path class="cls-1" d="M328.78,1a1.2,1.2,0,0,1,1.13-1h1A1.39,1.39,0,0,1,332,.63l14.61,27.2h0.13l14.61-27.2A1.39,1.39,0,0,1,362.4,0h1a1.2,1.2,0,0,1,1.13,1l7.11,42.31a1.15,1.15,0,0,1-1.2,1.39H363a1.28,1.28,0,0,1-1.2-1L359,24.24h-0.13l-10.58,20.4a1.47,1.47,0,0,1-1.07.69h-1.13a1.37,1.37,0,0,1-1.07-.69l-10.64-20.4h-0.13l-2.77,19.45a1.23,1.23,0,0,1-1.2,1h-7.43a1.15,1.15,0,0,1-1.2-1.39Z"/><path class="cls-1" d="M380,1.83a1.24,1.24,0,0,1,1.2-1.2h7.56a1.24,1.24,0,0,1,1.2,1.2V43.51a1.24,1.24,0,0,1-1.2,1.2h-7.56a1.24,1.24,0,0,1-1.2-1.2V1.83Z"/><path class="cls-1" d="M401,1.13A1.18,1.18,0,0,1,402.2,0h1.57l25.12,24.18H429V1.83a1.2,1.2,0,0,1,1.2-1.2h7.56a1.24,1.24,0,0,1,1.2,1.2V44.2a1.18,1.18,0,0,1-1.2,1.13h-1a1.86,1.86,0,0,1-.82-0.31L411,20h-0.06V43.51a1.2,1.2,0,0,1-1.2,1.2h-7.49a1.24,1.24,0,0,1-1.2-1.2Z"/><path class="cls-1" d="M448,38.72l3-5.23a1.62,1.62,0,0,1,2.14-.38c0.25,0.13,4.78,3.46,8.94,3.46,2.52,0,4.34-1.57,4.34-3.78,0-2.65-2.2-4.66-6.49-6.36-5.41-2.14-12.21-6.36-12.21-13.91C447.65,6.3,452.5,0,462.19,0a23.41,23.41,0,0,1,13.47,4.72,1.59,1.59,0,0,1,.38,2l-3.21,4.85c-0.44.69-1.57,1.26-2.14,0.82s-5.16-3.78-9-3.78c-2.27,0-4,1.51-4,3.21,0,2.33,1.89,4.09,6.86,6.11s12.72,5.79,12.72,14.36c0,6.49-5.6,13-14.86,13-8.18,0-12.72-3.4-14.17-4.85C447.65,39.85,447.46,39.6,448,38.72Z"/><path class="cls-1" d="M485.64,2.14A1.49,1.49,0,0,1,487.16.63h7.37A1.53,1.53,0,0,1,496,2.14V18.7L510,1.26a1.87,1.87,0,0,1,1.2-.63h7.93A1.46,1.46,0,0,1,520.27,3L505.54,21.41l16.05,20.9a1.48,1.48,0,0,1-1.2,2.33h-8.69a1.73,1.73,0,0,1-1.13-.44L496,24.43V43.19a1.53,1.53,0,0,1-1.51,1.51h-7.37a1.49,1.49,0,0,1-1.51-1.51V2.14Z"/><path class="cls-1" d="M528.05,1.83a1.24,1.24,0,0,1,1.2-1.2h7.56a1.24,1.24,0,0,1,1.2,1.2V43.51a1.24,1.24,0,0,1-1.2,1.2h-7.56a1.24,1.24,0,0,1-1.2-1.2V1.83Z"/></svg>